<?xml version="1.0" encoding="utf-8"?>
<!-- Generator: Adobe Illustrator 16.0.4, SVG Export Plug-In . SVG Version: 6.00 Build 0)  -->
<!DOCTYPE svg PUBLIC "-//W3C//DTD SVG 1.1//EN" "http://www.w3.org/Graphics/SVG/1.1/DTD/svg11.dtd">
<svg version="1.1" id="Layer_1" xmlns="http://www.w3.org/2000/svg" xmlns:xlink="http://www.w3.org/1999/xlink" x="0px" y="0px"
	 width="50px" height="50px" viewBox="0 0 50 50" enable-background="new 0 0 50 50" xml:space="preserve">
<polygon fill="none" stroke="#333333" stroke-width="2.7413" stroke-miterlimit="10" points="34.113,45.541 29.386,37.35 
	34.113,29.161 43.57,29.161 48.299,37.35 43.57,45.541 "/>
<path fill="none" stroke="#333333" stroke-width="2" stroke-miterlimit="10" d="M25,3.535"/>
<path fill="none" stroke="#000000" stroke-width="2" stroke-miterlimit="10" d="M2.035,26.372"/>
<path fill="none" stroke="#000000" stroke-width="2" stroke-miterlimit="10" d="M6.442,20.345"/>
<path fill="none" stroke="#000000" stroke-width="2" stroke-miterlimit="10" d="M11.26,26.044"/>
<path fill="none" stroke="#000000" stroke-width="2" stroke-miterlimit="10" d="M6.812,20.673"/>
<path fill="none" stroke="#333333" stroke-width="3" stroke-miterlimit="10" d="M25,9.092"/>
<path fill="none" stroke="#333333" stroke-width="3" stroke-miterlimit="10" d="M20,42.492c-8.785,0-15.908-7.123-15.908-15.908"/>
<path fill="none" stroke="#333333" stroke-width="3" stroke-miterlimit="10" d="M30,8.092c8.785,0,15.908,7.123,15.908,15.908"/>
<line fill="none" stroke="#333333" stroke-width="3" stroke-miterlimit="10" x1="27.956" y1="7.538" x2="34.777" y2="16.235"/>
<line fill="none" stroke="#333333" stroke-width="3" stroke-miterlimit="10" x1="27.115" y1="8.882" x2="35.63" y2="2.09"/>
<line fill="none" stroke="#333333" stroke-width="3" stroke-miterlimit="10" x1="21.938" y1="43.551" x2="15.116" y2="34.854"/>
<line fill="none" stroke="#333333" stroke-width="3" stroke-miterlimit="10" x1="22.777" y1="42.207" x2="14.263" y2="49"/>
<polygon fill="none" stroke="#333333" stroke-width="2.7413" stroke-miterlimit="10" points="6.904,22.179 2.176,13.987 
	6.904,5.798 16.36,5.798 21.089,13.987 16.36,22.179 "/>
</svg>
